HIERARCHY
ROOT Hips
{
  OFFSET 0 0.240689 0
  CHANNELS 6 Xposition Yposition Zposition Zrotation Xrotation Yrotation
  JOINT Bip01_Spine0
  {
    OFFSET 0 -24.7459 49.7988
    CHANNELS 6 Xposition Yposition Zposition Zrotation Xrotation Yrotation
    JOINT Bip01_Pelvis
    {
      OFFSET 0 0 0
      CHANNELS 6 Xposition Yposition Zposition Zrotation Xrotation Yrotation
      JOINT Bip01_Spine0_Tail
      {
        OFFSET -6.47486 -3.86022 0
        CHANNELS 6 Xposition Yposition Zposition Zrotation Xrotation Yrotation
        JOINT Bip01_Spine0_Tail1
        {
          OFFSET 10.3837 -0.00825882 0
          CHANNELS 6 Xposition Yposition Zposition Zrotation Xrotation Yrotation
          JOINT Bip01_Spine0_Tail2
          {
            OFFSET 10.3837 -0.00826263 0
            CHANNELS 6 Xposition Yposition Zposition Zrotation Xrotation Yrotation
            JOINT Bip01_Spine0_Tail3
            {
              OFFSET 10.3837 -0.00825882 0
              CHANNELS 6 Xposition Yposition Zposition Zrotation Xrotation Yrotation
              JOINT Bip01_Spine0_Tail4
              {
                OFFSET 10.3837 -0.00826263 0
                CHANNELS 6 Xposition Yposition Zposition Zrotation Xrotation Yrotation
                End Site
                {
                  OFFSET 0 0 0
                }
              }
            }
          }
        }
      }
      JOINT Bip01_R_Thigh
      {
        OFFSET 0 -1.52588e-005 -8.75617
        CHANNELS 6 Xposition Yposition Zposition Zrotation Xrotation Yrotation
        JOINT Bip01_R_Calf
        {
          OFFSET 19.7638 0 0
          CHANNELS 6 Xposition Yposition Zposition Zrotation Xrotation Yrotation
          JOINT Bip01_R_Foot
          {
            OFFSET 18.6534 0 0
            CHANNELS 6 Xposition Yposition Zposition Zrotation Xrotation Yrotation
            JOINT Bip01_R_Toe0
            {
              OFFSET 5.09145 13.9567 0
              CHANNELS 6 Xposition Yposition Zposition Zrotation Xrotation Yrotation
              JOINT Bip01_R_Toe01
              {
                OFFSET 4.28803 0 0
                CHANNELS 6 Xposition Yposition Zposition Zrotation Xrotation Yrotation
                JOINT Bip01_R_Toe02
                {
                  OFFSET 3.85801 0 0
                  CHANNELS 6 Xposition Yposition Zposition Zrotation Xrotation Yrotation
                  End Site
                  {
                    OFFSET 0 0 0
                  }
                }
              }
            }
          }
        }
      }
      JOINT Bip01_L_Thigh
      {
        OFFSET 0 1.52588e-005 8.75617
        CHANNELS 6 Xposition Yposition Zposition Zrotation Xrotation Yrotation
        JOINT Bip01_L_Calf
        {
          OFFSET 19.7638 0 0
          CHANNELS 6 Xposition Yposition Zposition Zrotation Xrotation Yrotation
          JOINT Bip01_L_Foot
          {
            OFFSET 18.6534 0 0
            CHANNELS 6 Xposition Yposition Zposition Zrotation Xrotation Yrotation
            JOINT Bip01_L_Toe0
            {
              OFFSET 5.09144 13.9567 0
              CHANNELS 6 Xposition Yposition Zposition Zrotation Xrotation Yrotation
              JOINT Bip01_L_Toe01
              {
                OFFSET 4.28802 0 0
                CHANNELS 6 Xposition Yposition Zposition Zrotation Xrotation Yrotation
                JOINT Bip01_L_Toe02
                {
                  OFFSET 3.85801 0 0
                  CHANNELS 6 Xposition Yposition Zposition Zrotation Xrotation Yrotation
                  End Site
                  {
                    OFFSET 0 0 0
                  }
                }
              }
            }
          }
        }
      }
      JOINT Bip01_Spine
      {
        OFFSET 9.14835 -0.00640869 -1.1e-005
        CHANNELS 6 Xposition Yposition Zposition Zrotation Xrotation Yrotation
        JOINT Bip01_Spine1
        {
          OFFSET 8.04366 -0.00638199 0
          CHANNELS 6 Xposition Yposition Zposition Zrotation Xrotation Yrotation
          JOINT Bip01_Spine2
          {
            OFFSET 8.04367 -0.00639343 0
            CHANNELS 6 Xposition Yposition Zposition Zrotation Xrotation Yrotation
            JOINT Bip01_Spine3
            {
              OFFSET 8.04304 -0.00831222 0
              CHANNELS 6 Xposition Yposition Zposition Zrotation Xrotation Yrotation
              JOINT Bip01_Neck
              {
                OFFSET 10.6685 1.06813 0
                CHANNELS 6 Xposition Yposition Zposition Zrotation Xrotation Yrotation
                JOINT Bip01_R_Clavicle
                {
                  OFFSET -3.21661 -4.89635 -9.04802
                  CHANNELS 6 Xposition Yposition Zposition Zrotation Xrotation Yrotation
                  JOINT Bip01_R_UpperArm
                  {
                    OFFSET 19.0492 0 0
                    CHANNELS 6 Xposition Yposition Zposition Zrotation Xrotation Yrotation
                    JOINT Bip01_R_Forearm
                    {
                      OFFSET 10.3706 0 0
                      CHANNELS 6 Xposition Yposition Zposition Zrotation Xrotation Yrotation
                      JOINT Bip01_R_Hand
                      {
                        OFFSET 22.8632 0 0
                        CHANNELS 6 Xposition Yposition Zposition Zrotation Xrotation Yrotation
                        JOINT Bip01_R_Finger0
                        {
                          OFFSET 6.48259 0.103651 0.504496
                          CHANNELS 6 Xposition Yposition Zposition Zrotation Xrotation Yrotation
                          JOINT Bip01_R_Finger01
                          {
                            OFFSET 3.66847 0 0
                            CHANNELS 6 Xposition Yposition Zposition Zrotation Xrotation Yrotation
                            End Site
                            {
                              OFFSET 0 0 0
                            }
                          }
                        }
                      }
                    }
                  }
                }
                JOINT Bip01_L_Clavicle
                {
                  OFFSET -3.21661 -4.89641 9.04797
                  CHANNELS 6 Xposition Yposition Zposition Zrotation Xrotation Yrotation
                  JOINT Bip01_L_UpperArm
                  {
                    OFFSET 19.0492 0 0
                    CHANNELS 6 Xposition Yposition Zposition Zrotation Xrotation Yrotation
                    JOINT Bip01_L_Forearm
                    {
                      OFFSET 10.3706 0 0
                      CHANNELS 6 Xposition Yposition Zposition Zrotation Xrotation Yrotation
                      JOINT Bip01_L_Hand
                      {
                        OFFSET 22.8631 0 0
                        CHANNELS 6 Xposition Yposition Zposition Zrotation Xrotation Yrotation
                        JOINT Bip01_L_Finger0
                        {
                          OFFSET 6.48257 0.103655 -0.504492
                          CHANNELS 6 Xposition Yposition Zposition Zrotation Xrotation Yrotation
                          JOINT Bip01_L_Finger01
                          {
                            OFFSET 3.66844 0 0
                            CHANNELS 6 Xposition Yposition Zposition Zrotation Xrotation Yrotation
                            End Site
                            {
                              OFFSET 0 0 0
                            }
                          }
                        }
                      }
                    }
                  }
                }
                JOINT Bip01_Neck1
                {
                  OFFSET 7.52459 -0.00656509 0
                  CHANNELS 6 Xposition Yposition Zposition Zrotation Xrotation Yrotation
                  JOINT Bip01_Neck2
                  {
                    OFFSET 8.4783 -0.00588226 0
                    CHANNELS 6 Xposition Yposition Zposition Zrotation Xrotation Yrotation
                    JOINT Bip01_Head
                    {
                      OFFSET 8.41606 0 0
                      CHANNELS 6 Xposition Yposition Zposition Zrotation Xrotation Yrotation
                      JOINT EyesBlue
                      {
                        OFFSET 0 0 0
                        CHANNELS 6 Xposition Yposition Zposition Zrotation Xrotation Yrotation
                        JOINT EyesBlue_2
                        {
                          OFFSET 0 -0.500007 0
                          CHANNELS 6 Xposition Yposition Zposition Zrotation Xrotation Yrotation
                          End Site
                          {
                            OFFSET 0 0 0
                          }
                        }
                      }
                      JOINT Bip01_Head2_Eyeleds
                      {
                        OFFSET 6.52751 7.61746 2.2e-005
                        CHANNELS 6 Xposition Yposition Zposition Zrotation Xrotation Yrotation
                        End Site
                        {
                          OFFSET 0 0 0
                        }
                      }
                      JOINT Bip01_Head_Muzzle
                      {
                        OFFSET 2.88628 13.9448 3.88994
                        CHANNELS 6 Xposition Yposition Zposition Zrotation Xrotation Yrotation
                        End Site
                        {
                          OFFSET 0 0 0
                        }
                      }
                      JOINT Bip01_Head1_Jaw
                      {
                        OFFSET 0.271065 1.32405 0
                        CHANNELS 6 Xposition Yposition Zposition Zrotation Xrotation Yrotation
                        JOINT _Bip01_Head11_TungeControler
                        {
                          OFFSET 4.61616 5.82872 0
                          CHANNELS 6 Xposition Yposition Zposition Zrotation Xrotation Yrotation
                          JOINT _Bip01_Ponytail3_tunge
                          {
                            OFFSET 5.17785 2.98805 0
                            CHANNELS 6 Xposition Yposition Zposition Zrotation Xrotation Yrotation
                            JOINT Bip01_Ponytail31
                            {
                              OFFSET 5.57569 0 0
                              CHANNELS 6 Xposition Yposition Zposition Zrotation Xrotation Yrotation
                              JOINT Bip01_Ponytail32
                              {
                                OFFSET 2.93165 0 0
                                CHANNELS 6 Xposition Yposition Zposition Zrotation Xrotation Yrotation
                                JOINT Bip01_Ponytail3Nub
                                {
                                  OFFSET 3.30155 0 0
                                  CHANNELS 6 Xposition Yposition Zposition Zrotation Xrotation Yrotation
                                  End Site
                                  {
                                    OFFSET 0 0 0
                                  }
                                }
                              }
                            }
                          }
                        }
                        JOINT Bip01_Head_JawNub
                        {
                          OFFSET 15.5776 -0.000389099 0
                          CHANNELS 6 Xposition Yposition Zposition Zrotation Xrotation Yrotation
                          End Site
                          {
                            OFFSET 0 0 0
                          }
                        }
                      }
                      JOINT Bip01_Ponytail2
                      {
                        OFFSET 9.40334 1.03973 -6.51764
                        CHANNELS 6 Xposition Yposition Zposition Zrotation Xrotation Yrotation
                        JOINT Bip01_Ponytail21
                        {
                          OFFSET 2.77018 -0.00640106 1.33514e-005
                          CHANNELS 6 Xposition Yposition Zposition Zrotation Xrotation Yrotation
                          End Site
                          {
                            OFFSET 0 0 0
                          }
                        }
                      }
                      JOINT Bip01_Ponytail1
                      {
                        OFFSET 9.40368 1.03969 6.51768
                        CHANNELS 6 Xposition Yposition Zposition Zrotation Xrotation Yrotation
                        JOINT Bip01_Ponytail11
                        {
                          OFFSET 2.77018 -0.00640487 0
                          CHANNELS 6 Xposition Yposition Zposition Zrotation Xrotation Yrotation
                          End Site
                          {
                            OFFSET 0 0 0
                          }
                        }
                      }
                    }
                  }
                }
              }
            }
          }
        }
      }
    }
  }
}
MOTION
Frames:	4
Frame Time:	0.0333333
-2e-006 2e-006 0 -0 -90 -0 3e-006 -24.7459 50.464 90 -3.50835e-015 90 0 0 0 -89.999 0.000781507 -93.9001 -6.45922 -3.86078 0.440207 133.256 2.84235 -2.67174 10.3791 -0.007156 0.000142 -29.7612 0.000479151 0.000826631 10.3834 -0.00811 0.000137 0.499441 0.001363 0.00135099 10.3852 -0.008049 -1.34213e-010 13.1311 -6.07739e-006 -4.46469e-005 10.3847 -0.008045 5.09999e-005 9.58567 0.00183487 0.00155083 1.1e-005 -1.5e-005 -8.75617 -97.489 -11.9741 173.961 19.7638 3.55271e-015 -1e-006 -60.8875 -0.000307649 -0.00119363 18.6534 3e-006 3.48166e-013 -27.494 1.40153 7.55354 5.09143 13.9567 2.51149e-006 114.82 3.10022 1.66817 0 0 0 65 5.69117e-006 1.2172e-005 3.85799 1.77636e-015 7.10543e-015 -45 -2.12408e-005 -9.54008e-007 -1.3e-005 1.1e-005 8.75617 -110.948 -4.43358 -179.209 19.7638 1.77636e-015 1.42109e-014 -63.6003 -0.000777842 -0.00326242 18.6534 3e-006 6.75016e-014 -25.5004 1.14622 -5.71883 5.09143 13.9567 -1.51468e-007 115.001 0.00149334 5.00027 4.288 -1e-006 1e-006 65 -7.95975e-006 1.39236e-006 3.85799 3.35731e-013 -3e-006 -45 -7.98381e-006 -7.06567e-006 9.12718 -0.00638 -0.622128 0.000676951 0.00148106 3.9001 8.04366 0.000104711 -0.00764965 0.0463402 -9.44984e-005 0.108566 8.04366 -0.006401 -2.02835e-008 -8.09748e-007 0.000134909 0.054077 8.04304 -0.008319 -1.30162e-008 -4.29873 0.000144554 0.0540957 10.67 1.06797 7.54697e-007 0.69085 1.26701e-005 1.00551e-005 -4.30513 -3.97475 -9.04791 179.263 -85.4183 115 19.0492 6.03962e-014 -3e-006 89.7463 8.416 -103.466 10.3706 -1.59872e-014 7.54952e-015 -58.5374 3.63405e-005 0.000126979 22.8631 3e-006 -7.9492e-014 -16.6207 -0.172499 2.45141 6.48255 0.103651 0.504495 -78.3091 -0.300405 -15.4962 3.66843 -1.28786e-014 1.77636e-015 34.6071 -1.67828e-005 1.76776e-005 -4.30501 -3.97453 9.04777 179.261 85.4171 -114.997 19.0492 -1e-006 -1.42109e-014 88.6332 -8.3143 99.4939 10.3706 0 -3.55271e-015 -58.539 0.000846681 0.00301265 22.8631 3.55271e-015 -1.06581e-014 -16.4598 -8.55766 -2.45258 6.48256 0.103653 -0.504496 -75.9429 0.955969 15.4702 3.66843 2e-006 1e-006 40.107 -6.17547e-006 1.70902e-005 7.52562 -0.006721 1.84067e-009 -4.48654 3.9106e-007 1.14828e-005 8.47686 -0.006458 7.87087e-010 15.6197 9.80043e-006 -5.11489e-005 8.41604 7.10543e-015 -1.38778e-016 -74.0222 0.196397 -0.0896069 -7e-006 1e-006 -3e-006 -23.1098 1.37701e-015 90 -1.51007e-008 -0.500004 -5.29159e-006 88.9284 89.9999 1.07163 0 0 0 -113.549 1.52588e-005 -179.999 2.88629 13.9448 3.88993 -22.9892 1.37021e-015 90 0 0 0 -85.3358 -7.01671e-015 -180 0 0 0 -120.289 -2.99441e-006 -1.81119e-005 0 0 0 133.74 -2.48192e-005 3.31509e-006 0 0 0 -0.168468 4.45652e-008 1.18863e-008 0 0 0 -22.6319 2.00018e-006 1.53845e-006 0 0 0 -26.1943 3.6775e-007 7.45951e-007 15.5776 -0.000396 -7.00002e-006 3.18055e-015 -1.21329e-018 -4.85314e-019 9.40318 1.03993 -6.51742 -19.0864 17.2466 20.3038 2.77017 -0.006404 8.61844e-010 2.43506 -5.13535e-007 -1.69668e-005 9.40358 1.03974 6.51765 -19.0855 -17.2459 -20.2999 2.77017 -0.006412 -1.00069e-006 2.43506 -4.78902e-007 -1.75611e-005 
-2e-006 2e-006 0 -0 -90 -0 3e-006 -24.7459 49.6565 90 -1.8012e-005 88.7497 0 0 0 -89.9943 0.0792376 -93.8992 -6.45387 -3.86967 0.440207 133.334 2.84297 -2.67125 10.3791 -0.007156 0.000142 -29.7765 0.000476154 0.000820681 10.3834 -0.00811 0.000137 2.58716 0.00138726 0.00132668 10.3852 -0.008049 -1.34679e-010 15.0713 -6.11058e-006 -4.48555e-005 10.3847 -0.008045 5.09999e-005 11.4889 0.00186006 0.00152048 1.1e-005 -1.5e-005 -8.75617 -99.215 -11.6799 173.467 19.7638 3.55271e-015 -1e-006 -66.2322 -0.000245415 -0.00119443 18.6534 3e-006 3.62377e-013 -25.1491 1.44773 7.53093 5.09143 13.9567 2.05279e-006 114.821 3.1002 1.66813 0 0 0 65 3.91448e-006 1.2258e-005 3.85799 -1.42109e-014 3.55271e-015 -45 -2.00324e-005 2.73963e-007 -1.3e-005 1.1e-005 8.75617 -111.796 -3.66252 -178.841 19.7638 -7.10543e-015 7.10543e-015 -67.5021 -0.000654821 -0.00326609 18.6534 3e-006 4.79616e-014 -21.5168 1.39477 -4.93689 5.09143 13.9567 -1.39241e-007 112.996 0.00760858 5.00337 4.288 -1e-006 1e-006 64.734 -8.01854e-006 1.39894e-006 3.85799 3.4639e-013 -3e-006 -45 -7.91173e-006 -7.03187e-006 9.12703 0.00633101 -0.622128 -0.456904 -0.0301213 3.95448 8.04366 -0.006401 3.36226e-009 0.144243 0.000182111 0.0540768 8.04366 -0.006401 3.69423e-009 0.76426 0.000792049 0.054072 8.04304 -0.008319 8.82961e-009 -3.51874 0.000730334 0.0540797 10.67 1.06797 7.62837e-007 1.57011 1.65298e-005 -1.72222e-005 -4.36482 -3.90912 -9.04791 178.407 -85.4168 115.734 19.0492 5.15144e-014 -3e-006 89.8883 9.09958 -103.407 10.3706 -1.24345e-014 -1.02141e-014 -57.1115 3.95135e-005 0.000126176 22.8631 3e-006 -7.32747e-014 -17.6366 -0.0970784 2.64638 6.48255 0.103651 0.504495 -76.9666 -0.672484 -15.4848 3.66843 0 0 34.6071 -1.68609e-005 1.78371e-005 -4.36466 -3.90906 9.04777 178.399 85.4166 -116.058 19.0492 -1e-006 -1.42109e-014 88.5464 -7.59816 99.473 10.3706 -3.55271e-015 0 -58.8343 0.000838052 0.00301261 22.8631 -3.55271e-015 -3.55271e-015 -16.1517 -8.60879 -2.66569 6.48256 0.103653 -0.504496 -72.0129 2.0399 15.3674 3.66843 2e-006 1e-006 36.5046 3.66128e-006 8.6593e-006 7.52562 -0.006721 2.3119e-009 -4.51921 -2.96143e-006 1.11619e-005 8.47686 -0.006458 8.61328e-010 15.5904 9.7942e-006 -5.09631e-005 8.41604 7.10543e-015 -9.71445e-016 -74.0473 0.195149 -0.0891536 -7e-006 1e-006 -3e-006 -23.1098 1.37701e-015 90 -1.50902e-008 -0.500004 -5.29162e-006 87.403 89.9999 2.59698 0 0 0 -113.549 0.000106812 -180 2.88629 13.9448 3.88993 -22.9892 1.37021e-015 90 0 0 0 -84.6634 -7.01671e-015 -180 0 0 0 -117.976 -3.62786e-006 -1.81356e-005 0 0 0 131.09 0.189364 -0.509941 0 0 0 0.0314635 -1.04022e-009 -6.75296e-010 0 0 0 -22.8482 4.28128e-007 4.7791e-007 0 0 0 -26.1943 1.54266e-007 3.11686e-007 15.5776 -0.000396 -7.00002e-006 1.27222e-014 -2.71776e-018 -7.76503e-019 9.40318 1.03993 -6.51742 -17.5047 13.2679 19.8249 2.77017 -0.006404 7.35012e-010 2.29425 -0.0893962 0.121046 9.40358 1.03974 6.51765 -17.5053 -13.266 -19.8212 2.77017 -0.006412 -1.00054e-006 2.29425 0.089397 -0.121063 
-2e-006 2e-006 0 -0 -90 -0 3e-006 -24.7459 48.8663 90 9.28378e-006 87.5116 0 0 0 -89.989 0.160771 -93.8994 -6.44836 -3.87887 0.440207 133.416 2.84279 -2.67172 10.3791 -0.007156 0.000142 -29.8167 0.000478117 0.000826607 10.3834 -0.00811 0.000137 4.86983 0.00141424 0.00129851 10.3852 -0.008049 -1.35238e-010 16.8542 -5.84799e-006 -4.5188e-005 10.3847 -0.008045 5.09999e-005 13.3308 0.00188485 0.00149028 1.1e-005 -1.5e-005 -8.75617 -100.813 -11.382 173.008 19.7638 5.32907e-015 -1e-006 -71.3577 -0.000189698 -0.00119345 18.6534 3e-006 3.87246e-013 -22.9511 1.49707 7.501 5.09143 13.9567 1.60689e-006 114.819 3.10019 1.66818 0 0 0 65 2.20593e-006 1.23453e-005 3.85799 -7.10543e-015 0 -45 -1.88353e-005 1.45329e-006 -1.3e-005 1.1e-005 8.75617 -112.517 -2.89202 -178.406 19.7638 -3.55271e-015 -5.32907e-015 -71.188 -0.00054672 -0.00326636 18.6534 3e-006 3.55271e-014 -17.5858 1.70427 -4.15773 5.09143 13.9567 -1.29278e-007 111.352 0.0273318 5.01236 4.288 -1e-006 1e-006 63.9714 -8.23541e-006 1.41516e-006 3.85799 3.55271e-013 -3e-006 -45 -7.64767e-006 -6.90032e-006 9.127 0.0193155 -0.622128 -0.994857 -0.0673226 3.95402 8.04366 -0.006401 1.64888e-009 0.258635 0.000288433 0.0540763 8.04366 -0.006401 1.79725e-009 1.53236 0.00150256 0.0540569 8.04304 -0.008319 4.29128e-009 -2.71265 0.00152182 0.0540657 10.67 1.06797 7.71827e-007 2.45195 2.32229e-005 -1.71919e-005 -4.42644 -3.8392 -9.04791 177.494 -85.4171 116.493 19.0492 5.15144e-014 -3e-006 90.0918 10.0369 -103.36 10.3706 -3.55272e-015 4.44089e-016 -55.3318 4.3444e-005 0.000125043 22.8631 3e-006 -7.9492e-014 -18.7932 -0.0278677 2.85107 6.48255 0.103651 0.504495 -75.5845 -1.05509 -15.464 3.66843 -1.77636e-015 1.77636e-015 34.6071 -1.68427e-005 1.79141e-005 -4.42629 -3.8391 9.04777 177.486 85.4166 -117.143 19.0492 -1e-006 -1.42109e-014 88.495 -7.09803 99.4591 10.3706 -1.42109e-014 0 -58.8975 0.000835703 0.0030127 22.8631 -1.77636e-014 -8.88178e-016 -15.8357 -8.66241 -2.88611 6.48256 0.103653 -0.504496 -68.1539 3.09328 15.1946 3.66843 1.99999e-006 1.00001e-006 32.9722 0.000248693 -0.000150378 7.52562 -0.006721 3.07154e-009 -4.59815 -8.72438e-006 1.06269e-005 8.47686 -0.006458 9.41051e-010 15.5196 9.61199e-006 -5.07533e-005 8.41604 7.10543e-015 1.56819e-015 -73.8924 0.192676 -0.089037 -7e-006 1e-006 -3e-006 -23.1098 1.37701e-015 90 -1.50667e-008 -0.500004 -5.29167e-006 85.4719 90 4.52815 0 0 0 -113.549 6.10352e-005 -180 2.88629 13.9448 3.88993 -22.9892 1.37021e-015 90 0 0 0 -83.9911 -3.24611e-014 -180 0 0 0 -115.662 -4.27134e-006 -1.81308e-005 0 0 0 128.443 0.378711 -1.0199 0 0 0 0.231397 2.67373e-008 4.03213e-009 0 0 0 -23.0644 -7.29526e-007 -4.01607e-007 0 0 0 -26.1943 -1.16551e-008 -9.43096e-008 15.5776 -0.000396 -7.00002e-006 -6.36111e-015 -5.82377e-018 -2.71776e-018 9.40318 1.03993 -6.51742 -15.8653 9.22352 19.347 2.77017 -0.006404 5.66383e-010 1.94747 -0.311327 0.418967 9.40358 1.03974 6.51765 -15.865 -9.22153 -19.343 2.77017 -0.006412 -1.00035e-006 1.94747 0.311329 -0.418978 
-2e-006 2e-006 0 -0 -90 -0 3e-006 -24.7459 48.0696 90 -1.8043e-005 86.2547 0 0 0 -89.9836 0.239833 -93.8999 -6.44294 -3.88785 0.440207 133.496 2.84293 -2.67135 10.3791 -0.007156 0.000142 -29.8681 0.0004781 0.000826596 10.3834 -0.00811 0.000137 7.16491 0.00143953 0.00127007 10.3852 -0.008049 -1.35752e-010 18.5851 -6.22105e-006 -4.53682e-005 10.3847 -0.008045 5.09998e-005 15.0598 0.00190696 0.00146095 1.1e-005 -1.5e-005 -8.75617 -102.242 -11.0942 172.596 19.7638 1.06581e-014 -1e-006 -76.0532 -0.00014447 -0.00119118 18.6534 3e-006 3.74811e-013 -20.9942 1.54447 7.46711 5.09143 13.9567 1.20101e-006 114.821 3.10022 1.66812 0 0 0 65 6.44835e-007 1.24198e-005 3.85799 3.55272e-015 3.55271e-015 -45 -1.77287e-005 2.53258e-006 -1.3e-005 1.1e-005 8.75617 -112.897 -2.17423 -177.91 19.7638 0 -1.77636e-015 -74.3726 -0.000443107 -0.00326981 18.6534 3e-006 2.66454e-014 -13.5081 2.12045 -3.47745 5.09143 13.9567 -1.18295e-007 109.833 0.100991 5.07747 4.288 -1e-006 1e-006 62.7035 -8.58935e-006 1.44235e-006 3.85799 3.48166e-013 -3e-006 -45 -7.21381e-006 -6.6877e-006 9.12688 0.0320069 -0.622128 -1.52812 -0.104184 3.95322 8.04366 -0.006401 1.08943e-009 0.360378 0.000383947 0.0540757 8.04366 -0.006401 1.18074e-009 2.31761 0.0022386 0.0540314 8.04304 -0.008319 2.81379e-009 -1.87754 0.00231943 0.0540383 10.67 1.06797 7.79278e-007 3.35252 3.71444e-005 -1.71666e-005 -4.48599 -3.76957 -9.04791 176.596 -85.4172 117.242 19.0492 5.32907e-014 -3e-006 90.3293 11.1221 -103.329 10.3706 -1.24345e-014 2.66454e-015 -53.3792 4.77108e-005 0.000123638 22.8631 3e-006 -8.70415e-014 -19.9897 0.0299059 3.05462 6.48255 0.103651 0.504495 -74.1398 -1.45427 -15.4324 3.66843 1.28786e-014 1.77636e-015 34.6071 -1.69079e-005 1.80761e-005 -4.48582 -3.76942 9.04777 176.595 85.4167 -118.205 19.0492 -1e-006 -2.13163e-014 88.4708 -6.77574 99.4507 10.3706 1.77636e-014 -2.66454e-015 -58.8089 0.000837977 0.00301261 22.8631 -1.06581e-014 -2.66454e-015 -15.5104 -8.71339 -3.10212 6.48256 0.103653 -0.504496 -64.2493 4.14328 14.948 3.66843 2e-006 1e-006 29.4048 7.67866e-005 -3.26562e-005 7.52562 -0.006721 4.68942e-009 -4.70178 -2.16978e-005 1.04569e-005 8.47686 -0.006458 1.03947e-009 15.4267 9.23592e-006 -5.0495e-005 8.41604 -2.13163e-014 1.91514e-015 -73.6574 0.190736 -0.0893655 -7e-006 1e-006 -3e-006 -23.1098 1.37701e-015 90 -1.50321e-008 -0.500004 -5.29174e-006 83.9911 90 6.00891 0 0 0 -113.549 4.57764e-005 -180 2.88629 13.9448 3.88993 -22.9892 1.37021e-015 90 0 0 0 -83.3188 -7.01671e-015 -180 0 0 0 -113.349 -4.92376e-006 -1.80965e-005 0 0 0 125.8 0.56797 -1.52989 0 0 0 0.43133 8.98492e-008 2.09107e-008 0 0 0 -23.2807 -1.56221e-006 -1.13333e-006 0 0 0 -26.1943 -1.33549e-007 -4.73106e-007 15.5776 -0.000396 -7.00002e-006 -3.18055e-015 7.37677e-018 7.76503e-019 9.40318 1.03993 -6.51742 -14.2796 5.30973 18.9394 2.77017 -0.006404 3.73069e-010 1.4773 -0.616308 0.822327 9.40358 1.03974 6.51765 -14.2789 -5.30813 -18.9352 2.77017 -0.006412 -1.00015e-006 1.4773 0.616308 -0.822338 
